PathFileType	4	(X/Y/Z)	G:\マイドライブ\biomec\experimentalData\240725\CJ1.trc
DataRate	CameraRate	NumFrames	NumMarkers	Units	OrigDataRate	OrigDataStartFrame	OrigNumFrames
200.00	200.00	      4	52	mm	200.00	989	      1582
Frame#	Time	handR			wrRI			wrRO			elbRI			elbRO			shRF			shRU			shRB			handL			wrLI			wrLO			elbLI			elbLO			shLF			shLU			shLB			toeR			baRI			baRO			heelR			anRI			anRO			knRI			knRO			troR			toeL			baLI			baLO			heelL			anLI			anLO			knLI			knLO			troL			head			earR			earL			clav			c7			ribR			ribL			xiph			ASISR			ASISL			PSISR			PSISL			t8			t11			L1			L3			LS			COX			
		X1	Y1	Z1	X2	Y2	Z2	X3	Y3	Z3	X4	Y4	Z4	X5	Y5	Z5	X6	Y6	Z6	X7	Y7	Z7	X8	Y8	Z8	X9	Y9	Z9	X10	Y10	Z10	X11	Y11	Z11	X12	Y12	Z12	X13	Y13	Z13	X14	Y14	Z14	X15	Y15	Z15	X16	Y16	Z16	X17	Y17	Z17	X18	Y18	Z18	X19	Y19	Z19	X20	Y20	Z20	X21	Y21	Z21	X22	Y22	Z22	X23	Y23	Z23	X24	Y24	Z24	X25	Y25	Z25	X26	Y26	Z26	X27	Y27	Z27	X28	Y28	Z28	X29	Y29	Z29	X30	Y30	Z30	X31	Y31	Z31	X32	Y32	Z32	X33	Y33	Z33	X34	Y34	Z34	X35	Y35	Z35	X36	Y36	Z36	X37	Y37	Z37	X38	Y38	Z38	X39	Y39	Z39	X40	Y40	Z40	X41	Y41	Z41	X42	Y42	Z42	X43	Y43	Z43	X44	Y44	Z44	X45	Y45	Z45	X46	Y46	Z46	X47	Y47	Z47	X48	Y48	Z48	X49	Y49	Z49	X50	Y50	Z50	X51	Y51	Z51	X52	Y52	Z52	

989	4.940	554.71704	785.83234	855.72729	521.36963	712.82245	851.12299	491.73349	755.51080	902.15613	467.38596	630.88000	1082.81885	523.79883	576.03180	1061.16821	754.90955	774.81415	1145.40857	665.56360	742.22449	1206.12097	729.88531	743.86066	1201.28772	530.72583	1062.96082	868.52106	482.78781	1135.10535	873.40698	491.25305	1080.35852	928.78699	426.78476	1208.38110	1097.73877	471.73456	1274.15051	1070.27686	727.10608	1097.52087	1145.08130	694.67499	1124.27539	1200.39697	619.29279	1101.63330	1199.82068	639.15668	767.02875	36.64328	567.86462	831.81116	32.05862	519.88989	715.53003	45.85956	364.15741	843.17010	61.02045	476.01642	863.38562	118.68288	436.86166	773.48181	118.78635	691.22003	818.97076	402.80957	681.90387	704.58386	396.51385	467.74387	735.12506	731.28973	647.62140	1088.64771	39.14453	584.84589	1030.27136	48.64845	538.36029	1136.20190	47.50632	366.28329	1037.27917	55.50281	486.77042	1010.11316	133.30022	444.21857	1095.59131	116.31882	682.13831	1034.72363	417.58078	664.36774	1153.30103	421.73871	447.35663	1089.06348	730.87909	786.75653	947.80798	1451.88794	813.96985	862.33044	1287.12793	812.04480	1021.26556	1281.66602	762.37897	941.58759	1119.91748	682.23627	937.44446	1249.32043	586.78888	817.47211	874.67114	564.44360	1036.13367	874.19751	707.13867	937.52704	965.70825	530.88177	812.72736	769.84430	513.04517	1031.20569	783.12219	372.47339	848.82483	857.01215	367.69897	970.48102	861.82574	520.56183	923.49060	1106.82312	455.42352	918.73755	997.35352	426.32397	917.86432	942.63800	395.33691	910.88354	897.65723	358.41058	910.07703	855.42499	305.82828	907.41803	742.74866	
990	4.945	555.96301	786.09949	861.89764	522.58252	712.74182	857.19556	492.53433	755.58948	908.25427	468.87415	631.01166	1087.48926	523.86243	576.07935	1067.21411	755.08643	774.59735	1153.07922	664.52802	742.34503	1213.45227	728.95044	743.80664	1209.11450	532.27087	1063.22437	874.24158	484.05133	1134.74194	879.87488	492.12335	1080.56995	934.89075	426.24579	1208.02771	1103.41504	471.47531	1273.97632	1076.76318	726.75763	1097.87402	1152.81873	694.43738	1124.26953	1208.66052	618.33496	1101.57349	1207.09583	639.16602	767.04327	36.65044	567.85809	831.79877	32.07286	519.94086	715.55920	45.98662	364.16449	843.10345	61.15809	475.91098	863.36627	118.81860	436.81326	773.47632	119.02777	689.90540	819.93567	405.02570	680.07678	705.64355	398.46835	469.75650	735.66064	736.31396	647.63727	1088.64844	39.18489	584.76227	1030.30713	48.68135	538.41339	1136.23596	47.53562	366.83014	1037.32520	55.14568	486.49310	1010.17365	133.48253	444.13763	1095.71021	116.51962	680.36633	1034.01563	419.60370	662.88599	1152.59253	423.81302	449.12186	1088.87805	735.73132	785.94806	947.74567	1460.09619	813.04211	862.32697	1295.18298	810.82849	1021.32086	1289.70581	761.76221	941.58435	1128.09033	681.08020	937.27954	1256.74268	588.41394	817.52924	881.08533	565.61981	1036.57996	880.64771	707.86432	937.69348	973.48767	532.57239	812.68536	775.95038	515.01404	1031.33069	788.96747	374.25800	849.11346	862.61121	369.53134	970.66992	867.40906	520.39648	923.30713	1112.98975	456.15585	918.81244	1003.16614	427.55045	918.02966	948.10388	396.74344	911.11200	903.17950	359.76971	910.31342	861.15393	308.03790	907.90564	748.01581	
991	4.950	557.04773	785.75671	868.30951	523.59662	712.47296	863.32037	493.61133	755.77576	914.25800	468.76001	630.93884	1093.32007	523.88068	576.09357	1073.38757	754.03503	774.53174	1161.24792	663.32782	742.60541	1220.81470	727.62689	744.01349	1217.00891	533.84418	1063.50269	880.02112	485.03314	1135.00244	886.04626	493.08472	1080.62622	940.88330	425.82343	1208.08887	1109.51892	471.38901	1273.85071	1082.97388	726.28235	1098.03992	1161.25256	692.99738	1124.05688	1216.31274	617.12543	1101.33228	1214.38208	639.16022	767.08093	36.70950	567.81073	831.79926	32.12258	519.99573	715.56769	46.05845	364.14035	842.99927	61.28549	475.76013	863.36133	118.95923	436.72888	773.42169	119.29446	687.94446	820.80945	406.75873	678.31665	706.74542	400.83731	471.33771	736.22351	741.39941	647.61133	1088.63123	39.22167	584.71985	1030.31531	48.77359	538.43799	1136.30481	47.59558	366.23853	1037.65527	55.70510	486.07455	1010.30560	133.79228	444.74030	1095.94800	116.05585	678.55750	1033.31995	421.19016	661.26984	1151.85706	425.91623	450.57550	1088.72339	740.76617	784.79321	947.78052	1468.36743	811.54041	862.17731	1303.54492	809.63342	1021.39923	1297.95996	761.39575	941.73376	1136.35413	679.78906	937.30859	1263.85229	589.71594	817.57623	887.75763	566.96118	1036.73169	887.11749	708.73334	938.10516	981.47778	534.54449	812.78400	781.82336	516.62451	1031.39380	794.78619	375.90979	849.26929	868.11102	371.21283	970.96448	872.86993	520.22510	923.40399	1119.24731	456.94241	918.81213	1008.89417	428.64877	918.30365	953.82062	398.10571	911.34320	908.72705	361.67822	910.53406	866.91815	309.91574	908.15845	753.93915	
992	4.955	558.72748	785.36102	874.33441	524.81604	712.55713	869.53107	494.52090	755.98120	920.31805	468.64673	630.98608	1099.26404	523.89404	576.08813	1079.62354	753.31897	774.44611	1169.52600	662.04211	742.70435	1228.07166	726.33441	744.07349	1225.11914	535.44519	1063.79468	885.85248	486.18668	1135.42126	892.33679	494.07050	1080.94458	946.98096	424.95584	1208.15076	1115.83240	470.83707	1273.76990	1088.90759	724.95715	1097.82349	1169.70410	690.87604	1124.06482	1224.33936	615.88251	1101.12817	1221.69531	639.18024	767.10736	36.73898	567.78400	831.78448	32.19082	520.08386	715.58679	46.10876	364.10919	842.89899	61.34344	475.62424	863.28857	119.09538	436.62436	773.32599	119.49208	685.87970	822.10272	408.96326	676.20953	707.86469	403.02023	473.08994	736.72534	746.67853	647.60797	1088.63904	39.26780	584.77191	1030.21436	48.90500	538.48376	1136.36230	47.60008	366.20651	1037.83203	55.80471	486.23193	1010.56281	133.48105	444.47891	1096.13489	116.30445	676.58832	1032.59094	423.24664	659.32025	1150.64148	427.72910	452.11981	1088.58765	745.71503	783.93286	947.67261	1476.66089	810.50372	862.21564	1311.68762	808.32666	1021.10968	1306.00952	761.00525	941.83624	1144.69031	678.49512	937.07953	1271.52124	591.25873	817.59381	894.38770	568.55487	1037.33020	893.87854	709.40356	938.26306	989.38068	536.37268	812.86047	787.98334	518.93707	1031.94519	801.26331	377.72421	849.41956	873.74963	372.99356	971.23932	878.52484	520.01129	923.53485	1125.44507	457.61899	918.92554	1014.60156	429.81497	918.32172	959.34576	399.38382	911.54858	914.25330	363.39999	910.69910	872.44379	311.85165	908.45465	759.84009	
